<svg viewBox="0 0 278 101" fill="none" xmlns="http://www.w3.org/2000/svg">
<path d="M153.428 29.774L153.439 29.8011C153.439 28.6002 153.635 27.3992 153.635 26.1983V24.3941C152.635 23.7909 152.434 22.59 152.635 21.5955C152.831 16.596 153.037 11.7976 153.233 6.79818C154.835 6.79818 156.421 6.99381 158.012 6.99381C157.817 11.9933 157.415 16.7917 157.219 21.7911C157.219 22.7965 156.817 23.9974 155.823 24.5897C155.628 26.3939 155.628 28.1926 155.421 29.9859C156.019 29.9859 156.817 29.9859 157.415 30.1815C160.804 30.3772 164.198 30.5837 167.587 30.9804C167.783 29.1762 167.989 27.3775 168.185 25.5842C167.989 25.5842 167.989 25.3886 167.783 25.1821C167.185 24.5843 167.185 23.3779 167.185 22.5845C167.587 18.1828 167.978 13.9822 168.386 9.58592C168.386 8.7871 168.788 7.18401 169.988 6.98838C170.184 5.18422 170.39 3.38551 170.585 1.59222C163.009 0.793393 155.231 0.391262 147.655 0.195631C145.661 0.195631 143.462 0.195631 141.469 0V5.39616C142.663 5.99935 142.663 7.20031 142.663 8.19477C142.663 12.5965 142.468 16.7971 142.468 21.1934C142.468 22.3943 142.272 23.5953 141.273 23.992V29.3881C144.461 29.3881 147.459 29.3881 150.647 29.5838C151.647 29.7794 152.445 29.7794 153.434 29.7794L153.428 29.774ZM79.4546 12.4063C79.8293 12.7649 80.1443 13.6344 80.2475 14.2104C80.3507 14.781 82.0453 22.6063 82.8382 27.008C83.0337 28.0133 83.0337 29.2142 82.2408 30.0131C82.6427 31.8172 83.0446 33.6051 83.2401 35.2136C84.2395 35.018 85.2334 34.8115 86.2328 34.6104C89.2254 34.0072 92.2125 33.4094 95.2052 33.0073C95.0096 31.214 94.6077 29.4153 94.4122 27.6112C94.2764 27.6112 94.1406 27.5459 94.0103 27.4155C93.2173 27.0134 92.8154 25.8124 92.8154 25.0136C92.0225 20.2098 91.2132 15.2158 90.4202 10.4119C92.0225 10.2163 93.6084 9.80873 95.2106 9.6131C96.0036 14.4169 96.6064 19.411 97.3994 24.2148C97.6058 25.2201 97.6058 26.6167 96.6064 27.2199C96.802 29.0132 97.2039 30.8119 97.3994 32.6161C99.5882 32.2139 101.788 32.0129 103.977 31.6107C105.774 31.4151 107.768 31.2086 109.56 31.013C109.354 29.812 109.354 28.6111 109.158 27.4101C109.158 26.8069 108.963 26.2091 108.963 25.6059C107.969 25.2092 107.768 24.2094 107.567 23.4105V23.0084C107.176 18.6067 106.573 14.4115 106.171 10.0098V9.4066C106.171 9.0099 106.171 8.41214 106.366 8.01001C106.562 7.60788 106.757 7.20575 107.159 7.00468C106.964 5.2114 106.757 3.41268 106.562 1.60852C96.7965 2.60298 77.6514 6.20585 77.6514 6.20585C77.6514 6.20585 78.1728 9.73265 78.4443 11.8085C78.6507 11.8085 79.0689 12.0531 79.4437 12.4117L79.4546 12.4063ZM123.111 30.0076H123.122C122.926 28.2035 122.926 26.6113 122.72 24.8071C121.721 24.2094 121.52 23.4105 121.324 22.2096C122.926 22.0139 124.713 22.0139 126.31 22.0139C126.31 23.2149 126.31 24.0137 125.311 24.8125C125.311 26.6167 125.506 28.2089 125.506 30.0131C129.699 29.8174 133.881 29.6109 138.074 29.6109V24.4104C137.281 23.8072 136.472 22.8073 136.276 21.4053C134.674 14.2104 133.088 7.20575 131.095 0.2065C125.913 0.402131 120.727 0.60863 115.339 1.00533C114.339 8.2002 113.541 15.2049 112.748 22.4106C112.553 24.0137 112.346 24.606 111.548 25.6114C111.743 27.4155 111.95 29.2142 112.145 31.0184C115.936 30.6163 119.526 30.2196 123.111 30.0131V30.0076ZM122.926 7.80894C123.524 10.6076 124.322 13.4116 124.92 16.4113C123.92 16.4113 122.926 16.6069 121.927 16.6069C122.329 13.6018 122.524 10.8086 122.926 7.80351V7.80894ZM182.149 27.4101C181.155 26.6113 181.155 25.807 181.356 24.6115C182.958 24.8071 184.745 25.2092 186.341 25.4103C186.146 26.6113 185.94 27.4101 184.739 27.8122C184.544 29.6164 184.142 31.2086 183.946 33.0128C188.139 33.6159 192.126 34.4093 196.308 35.4147C196.71 33.8116 196.905 32.0183 197.307 30.4152C196.514 29.812 196.112 28.6111 196.112 27.2145C195.917 20.0196 195.71 12.6128 195.515 5.4179C190.333 4.41257 185.147 3.61374 179.965 3.01598C177.57 9.8196 175.381 16.6123 173.182 23.416C172.78 25.019 172.389 25.6114 171.384 26.2146C171.188 28.0187 170.982 29.8174 170.786 31.6107C174.176 31.6107 177.766 32.2139 181.361 32.6161C181.557 30.8119 181.763 29.2197 182.154 27.4155L182.149 27.4101ZM185.733 11.0097H185.744C185.744 14.0148 185.94 16.808 185.94 19.8131C184.94 19.6175 183.946 19.411 182.947 19.411C183.946 16.4058 184.94 13.8083 185.733 11.0097ZM126.114 59.0045C125.919 54.7985 123.926 52.8041 118.94 53.2062C113.758 53.4019 111.961 55.8038 111.961 60.2055V70.0033C111.961 73.2041 113.155 75.2039 115.947 76.2038C116.74 76.3994 117.94 76.6059 119.135 76.6059C120.737 76.6059 121.921 76.4103 123.122 76.0027C125.311 74.9974 126.31 72.9976 126.31 70.0088V59.8088C126.114 59.4066 126.114 59.2056 126.114 59.01V58.9991V59.0045ZM120.129 69.2045C120.129 70.6011 120.129 71.601 119.135 71.6064C118.141 71.6064 118.136 70.6011 117.94 69.411V60.0098C117.94 59.211 117.94 58.6133 118.136 58.2057C118.331 58.0101 118.538 58.0101 118.929 58.0101C119.928 58.0101 119.928 58.4122 120.129 59.4067V69.2045ZM151.641 71.4108C151.446 71.2152 151.239 70.8076 151.044 70.2098C150.251 68.0144 149.246 66.0038 148.453 63.8083C149.051 62.6074 149.653 61.6129 150.251 60.412C150.446 60.0098 150.653 59.6131 150.848 59.4067C151.446 58.2057 151.848 57.8036 152.244 57.6025V53.3964C150.055 53.3964 147.856 53.2008 145.667 53.2008V56.8037C145.667 57.809 144.928 59.2925 144.874 59.4012C144.874 59.4012 143.875 61.2054 143.272 62.1998V59.4012C143.272 58.9991 143.761 57.2058 144.065 57.1949V52.9889H136.488V57.1949C136.684 57.1949 137.281 58.798 137.281 59.4012V62.1998C136.684 61.1945 136.282 60.2 135.679 59.1947C135.081 58.1894 134.886 57.5971 134.886 56.3961V52.7932C132.893 52.7932 131.095 52.7932 129.102 52.9889H128.309V57.1949C128.504 57.1949 128.711 57.3906 128.906 57.5971C129.308 57.9992 129.699 58.6024 130.302 59.7925C130.899 60.9934 131.497 62.1944 132.1 63.1889C131.307 65.3843 130.302 67.3949 129.509 69.5903C129.107 70.7913 128.51 71.3945 128.113 71.3945V75.6006H135.092V72.5954C135.092 71.9923 135.092 71.5901 135.288 70.9924C135.288 70.5902 135.483 70.1935 135.69 69.7914C136.092 68.7861 136.689 67.7916 137.086 66.7863C137.281 66.5907 137.281 66.1831 137.487 65.9875V69.5903C137.487 69.9925 137.487 70.5957 137.292 70.9869C137.096 71.3891 137.096 71.5901 136.694 71.7858V75.9918H144.076V71.7858C143.478 71.3836 143.283 70.3892 143.283 69.5903V66.3896C143.478 66.9928 143.88 67.5906 144.076 68.1937C144.477 68.9926 144.673 69.5903 145.075 70.3892C145.477 71.3945 145.672 72.1933 145.672 72.9867V76.1875H152.651V72.1879C152.25 71.7858 152.054 71.5847 151.652 71.3891L151.641 71.3999V71.4108ZM109.967 74.2094V72.2096L109.772 72.014C109.37 71.6119 109.37 70.813 109.174 70.2098V60.6076C109.174 60.0044 109.174 58.8035 109.772 58.4013V54.4018C109.37 54.4018 108.772 54.4018 108.376 54.5974C106.383 54.793 104.389 54.9995 102.19 55.2006C101.592 57.9992 100.995 60.8032 100.392 63.4008C99.7946 60.8032 98.9962 58.2003 98.3987 55.6027C97.8013 55.6027 97.1984 55.7983 96.601 55.7983C95.2052 55.994 94.0103 56.2005 92.6145 56.4015C92.017 56.5972 91.2186 56.5972 90.6212 56.8037V60.4065C91.2186 60.6022 91.4142 61.6075 91.4142 62.2107V70.813C91.4142 71.6119 91.4142 72.4161 90.6212 72.6172V76.2201H96.8074V72.4216C96.4055 72.2259 96.4055 71.6227 96.2099 70.8185V65.819C97.0029 69.2154 98.0077 72.8183 98.9962 76.4211H100.794C101.587 73.0248 102.385 69.6175 103.189 66.2211C103.189 65.819 103.385 65.4223 103.385 65.0202V70.4163C103.385 71.2152 103.189 72.0194 102.787 72.4161V76.2146H110.168C109.973 75.4158 109.973 74.818 109.973 74.2148L109.962 74.204L109.967 74.2094ZM163.422 70.0196C163.422 70.6228 163.226 71.025 162.824 71.2206C162.422 71.4162 162.031 71.4162 161.233 71.4162V67.2102C162.629 67.2102 163.824 67.2102 165.219 67.4058V63.1997C163.824 63.1997 162.629 63.0041 161.233 63.0041V59.0045C162.433 59.0045 163.422 59.2002 163.422 60.6076V62.0042C165.415 62.0042 167.213 62.1998 169.005 62.4063V54.8039C164.215 54.0051 159.24 53.6029 154.449 53.4073L154.438 53.391V57.5971C154.569 57.7275 154.704 57.8633 154.84 57.9992C155.036 58.4013 155.242 59.2002 155.242 59.8033V69.8077C155.242 70.6065 155.047 71.4108 154.645 71.8075V76.0136H169.2V68.2155H163.416V70.0196H163.422ZM170.585 64.1942V64.205C171.981 64.205 173.578 64.4007 174.974 64.4007V60.7978C174.974 60.3957 174.974 59.7925 175.973 59.7925V70.9978C175.973 71.601 175.778 72.0031 175.376 72.3944V76.1929H182.757V72.59C182.355 72.3944 182.159 71.9868 182.159 71.5847V60.5859C182.561 60.7815 182.757 60.7815 182.757 60.988C182.887 61.1184 182.952 61.2543 182.952 61.3901V65.3897C184.348 65.5853 185.945 65.5853 187.341 65.7918V57.1895C181.958 56.1842 176.375 55.3853 170.987 54.7876C170.585 57.7927 170.585 60.988 170.585 64.1887V64.1942ZM18.0326 59.211C15.2464 46.2124 14.6435 35.0125 16.4304 33.8116L7.26243 35.6157C5.66021 37.0123 4.86725 48.6143 7.66434 61.4227C10.4506 74.4213 15.6428 84.029 17.6361 84.6213L26.8041 83.0182C24.6153 82.415 20.8243 72.2151 18.0272 59.2219L18.0326 59.211ZM35.38 55.8146V55.8038C30.9915 35.2082 30.796 17.6014 33.1912 15.6016H32.7893L19.8303 18.6067C17.4352 20.8021 16.6422 38.4089 21.0306 58.8089C25.4191 79.2089 33.1912 95.2071 36.3848 96.2125L49.3437 93.4139C49.5393 93.4139 49.5393 93.2182 49.7456 93.2182C46.753 92.4194 39.7739 76.4211 35.3854 55.8146H35.38ZM4.28068 53.2171L4.26982 53.2062L0.67433 54.0051C-0.118632 54.6083 -0.325019 58.4068 0.67433 62.6074C1.67368 67.0091 3.46056 70.4055 4.26982 70.612L7.85987 69.8131C7.06691 68.4166 5.8666 65.4114 5.07364 61.6129C4.28068 58.2166 4.07429 55.0158 4.28068 53.2171ZM270.895 35.219V35.2082L261.716 33.404C263.514 34.605 262.917 45.7994 260.125 58.8035C257.339 71.8021 253.341 82.002 251.348 82.4042L260.516 84.0073C262.716 83.4041 267.897 73.8073 270.488 60.8087C273.274 48.2068 272.677 36.6102 270.89 35.2082L270.895 35.219ZM258.143 18.1883L258.132 18.2046L245.173 15.1995H244.771C247.166 17.1992 246.97 35.0017 242.582 55.5973C238.194 76.1929 231.41 91.9955 228.222 92.7944C228.417 92.7944 228.417 92.99 228.624 92.99L241.789 95.7886C244.782 94.7833 252.755 78.785 257.143 58.385C261.336 37.985 260.532 20.3782 258.143 18.1828V18.1883ZM240.382 5.20053V5.2114C240.382 5.2114 222.036 0.60863 221.243 0.402131H220.048C219.646 0.402131 219.255 0.597762 219.048 0.804261C218.451 1.20639 218.049 1.40746 217.446 2.00522C216.653 2.80405 215.844 3.60831 215.247 4.60277C214.052 6.40692 213.058 8.40127 212.058 10.2054C210.261 14.0039 208.669 18.0035 207.279 22.0085C204.884 28.8121 203.086 35.6049 201.495 42.6041C160.413 34.4039 118.141 34.2083 76.8584 42.202C75.2562 35.3984 73.4693 28.8012 71.0741 22.3998C69.6783 18.4002 68.0815 14.3952 66.2946 10.5967C65.2953 8.5969 64.3014 6.79818 63.1065 4.99403C62.5091 3.9887 61.7107 3.18987 60.9177 2.39648C60.5158 1.99435 59.9184 1.59765 59.3155 1.39115C58.9136 1.19552 58.7181 1.19552 58.3161 0.989024H57.1213L37.9761 5.79285C34.9835 8.59147 33.7832 29.5892 38.9755 54.793C44.1569 79.5947 54.3296 99.5925 58.1206 101L77.4613 97.3971C78.4606 97.2015 79.0635 96.5983 79.4546 96.1962C79.8565 95.5984 80.052 95.1908 80.4539 94.5931C80.8558 93.5878 81.2469 92.3977 81.4533 91.3923C81.8552 89.1861 82.0507 86.9906 82.0507 84.9909C82.2462 80.7848 82.0507 76.3885 81.6488 72.1933C81.0513 65.7918 80.2529 59.1947 79.0581 52.7987C118.75 45.1962 159.625 45.1962 199.306 53.2008C198.111 59.4012 197.313 65.5962 196.715 71.8021C196.313 76.0081 196.118 80.4044 196.313 84.5996C196.313 86.795 196.509 88.8057 196.911 91.0011C197.106 92.0064 197.313 93.1965 197.91 94.2018C198.106 94.805 198.507 95.2071 198.909 95.7995C199.311 96.3972 199.909 96.8048 200.903 97.0004L220.243 100.603C224.034 99.2067 234.006 79.198 239.388 54.2007C244.57 28.9969 243.179 7.79807 240.388 5.20053H240.382ZM79.4491 84.5942C79.4491 86.5939 79.4491 88.8002 79.0472 90.7946C78.8517 91.7999 78.6453 92.7944 78.4498 93.5932C78.2542 93.9953 78.0479 94.392 77.8523 94.7941C77.722 94.9246 77.5862 95.0604 77.4504 95.1963C77.4504 95.1963 77.2549 95.1963 77.2549 95.3919H76.853C76.6575 95.3919 76.4511 95.3919 76.4511 95.1963C76.0492 95.0006 75.6581 94.7941 75.4517 94.3975C74.8543 93.7943 74.0559 93.0009 73.4585 92.202C72.2636 90.5989 71.2697 88.5992 70.4658 86.8059C68.6681 83.0074 67.0767 79.2034 65.6755 75.2093C62.8893 67.2047 60.6896 59.211 58.8919 50.8097C57.0941 42.6095 55.8992 34.2083 55.1008 25.8124C54.5034 21.8129 54.5034 17.6122 54.5034 13.417C54.5034 11.4172 54.6989 9.21097 55.1008 7.21661C55.2964 6.21129 55.5028 5.21683 55.8938 4.418C56.2957 3.61918 56.8932 2.81491 57.2896 2.81491C57.6916 2.61928 58.4899 3.21705 59.0874 3.82024C59.6848 4.42344 60.2877 5.21683 60.8851 6.22216C61.8845 7.82524 62.8784 9.82503 63.6714 11.6183C65.2736 15.4168 66.664 19.4164 68.0598 23.2149C69.4556 27.2145 70.455 31.2195 71.4489 35.219C72.0463 37.8166 72.6492 40.2185 73.2466 42.8215C72.6492 43.0171 72.2473 43.0171 71.6444 43.2236C69.8467 35.0234 67.6579 27.0297 64.8608 19.2208C63.8614 16.8188 63.0631 14.4169 61.8682 12.0259C61.4663 11.4227 61.2707 10.8249 60.8688 10.2217C60.4669 9.61853 60.0759 9.02077 59.473 8.62407C59.2775 8.42844 59.0711 8.42844 58.8756 8.22194H58.0826C57.4852 8.41757 57.0833 8.8197 56.8877 9.22727C56.4858 10.0261 56.2903 10.6239 56.2903 11.2271C55.8884 13.8246 56.0948 16.4276 56.2903 19.0251C56.4858 21.6227 56.6922 24.2257 57.0833 26.8232H57.6807C57.4852 24.2257 57.2788 21.6227 57.2788 19.2208C57.2788 16.6232 57.2788 14.0202 57.6807 11.6183C57.8762 11.0151 57.8762 10.4174 58.2781 10.0152C58.4139 9.73808 58.5443 9.65657 58.5551 9.62396C58.6312 9.64027 58.7506 9.68374 58.8756 9.80873C59.2775 10.0044 59.6685 10.6076 59.8749 11.0097C60.2768 11.6129 60.4724 12.015 60.6679 12.6128C61.6672 14.8082 62.6611 17.2101 63.4541 19.612C65.0455 24.4159 66.4467 29.4099 67.647 34.2137C68.44 37.2188 69.0429 40.4141 69.8358 43.4084C69.2384 43.604 68.6355 43.604 68.0381 43.8105C66.2403 38.2078 64.2471 34.4093 62.8567 34.8115C61.0589 35.2136 61.0589 42.6095 62.8567 51.2119C64.6544 59.8196 67.647 66.6124 69.4339 66.2157C70.8297 65.8136 71.2316 61.0152 70.2269 54.4126C70.8243 54.217 71.2262 54.217 71.8291 54.0105C72.4265 57.4069 73.024 61.0097 73.6268 64.4061C74.4198 69.4056 75.0227 74.6061 75.229 79.6056C75.229 80.8065 75.4246 82.2031 75.229 83.4041C75.229 84.605 75.229 86.0016 74.8271 87.0069C74.6316 87.6101 74.4252 88.2079 74.2297 88.4035C74.0342 88.4035 73.8278 88.2079 73.6323 88.0014C72.8393 87.2026 72.2364 86.1972 71.639 84.9963C69.4502 80.5946 67.848 75.5951 66.2566 70.7967L65.6592 70.9924C66.2566 73.3943 67.055 75.9918 67.848 78.3937C68.6409 80.7956 69.4502 83.1976 70.6342 85.5886C71.2316 86.7896 71.8345 87.9905 72.8339 88.985C73.0294 89.1806 73.4313 89.5882 73.8332 89.7838H74.6262C75.0281 89.7838 75.2236 89.5882 75.4191 89.3817C76.2121 88.5829 76.2121 87.9851 76.4185 87.1863C76.8204 85.7897 76.8204 84.5887 76.8204 83.1867V79.1871C76.6249 73.9866 76.0274 68.7915 75.4246 63.7866C75.0227 60.1837 74.4252 56.7874 73.6268 53.1845C74.2243 52.9889 74.6262 52.9889 75.229 52.7824C76.2284 55.3799 76.6249 57.5862 76.8313 59.7816H76.8584C77.4559 63.9877 78.2543 67.9818 78.6562 72.177C79.0581 76.3831 79.4491 80.5729 79.4491 84.5724V84.5942ZM77.4559 46.0114C77.2603 45.4136 77.2603 44.8104 77.0539 44.4083C117.93 36.4037 159.81 36.6102 200.696 44.8104C200.501 45.4136 200.501 46.0114 200.294 46.4135C159.81 38.2133 118.136 38.2133 77.4559 46.0114ZM223.236 25.6059C222.638 34.0018 221.243 42.2074 219.445 50.6033C217.647 58.8035 215.458 67.0037 212.661 75.0028C211.265 79.0024 209.669 82.8009 207.871 86.5994C206.872 88.4035 205.878 90.2022 204.878 91.9955C204.281 92.7944 203.683 93.5986 203.081 94.2018C202.679 94.604 202.288 94.805 202.081 95.0006C201.886 95.0006 201.679 95.1963 201.679 95.1963H201.277C201.277 95.1963 201.082 95.1963 201.082 95.0006C200.886 95.0006 200.886 94.805 200.68 94.5985C200.484 94.1964 200.278 93.7997 200.083 93.3976C199.681 92.5987 199.485 91.5934 199.485 90.5989C199.29 88.5992 199.083 86.5994 199.083 84.3985C199.083 80.1925 199.485 76.0027 199.876 71.9922C200.278 67.7862 200.876 63.792 201.674 59.5968C202.076 57.5971 202.271 55.7983 202.673 53.7986C203.271 53.9942 203.673 53.9942 204.275 54.2007C203.678 57.4014 203.075 60.7978 202.673 63.9985C201.88 69.1991 201.277 74.1985 201.277 79.3991V83.3986C201.277 84.7952 201.473 85.9962 201.679 87.3982C201.875 88.0014 202.081 88.7948 202.679 89.5936C202.874 89.7892 203.081 89.9957 203.472 89.9957H204.265C204.667 89.8001 205.058 89.5936 205.264 89.1969C206.263 88.1916 206.866 87.0015 207.453 85.8005C208.653 83.3986 209.446 80.9967 210.239 78.6057C211.032 76.2038 211.841 73.6062 212.428 71.2043L211.83 71.0087C210.228 75.8125 208.642 80.8065 206.448 85.2082C205.851 86.2135 205.248 87.4036 204.455 88.2133C204.259 88.409 204.053 88.6155 203.857 88.6155C203.662 88.4198 203.455 87.8166 203.26 87.2189C203.064 86.0179 203.064 84.817 202.858 83.616V79.8175C203.26 74.818 203.857 69.6175 204.46 64.618C204.862 61.4173 205.459 58.2166 206.051 55.0158C206.453 55.2114 207.051 55.2115 207.447 55.418H208.045C207.252 61.8194 207.447 66.6233 208.838 66.8189C210.635 67.221 213.628 60.4174 215.415 51.8151C217.213 43.2127 217.213 35.8168 215.415 35.4147C214.019 35.0125 211.819 39.2132 210.033 45.0169C209.837 45.0169 209.837 44.8213 209.631 44.8213C209.033 44.6256 208.631 44.6256 208.028 44.4191C208.821 41.0228 209.424 37.822 210.424 34.4148C211.624 29.4153 213.014 24.6169 214.617 19.8131C215.41 17.4112 216.414 15.0093 217.403 12.8138C217.598 12.2106 218 11.8085 218.196 11.2107C218.598 10.6076 218.793 10.2054 219.195 10.0098C219.391 9.81416 219.597 9.81416 219.597 9.81416C219.597 9.81416 219.793 9.81416 219.793 10.0098C219.988 10.4119 220.194 11.0151 220.39 11.6129C220.792 14.0148 220.792 16.6123 220.792 19.2153C220.792 21.8183 220.596 24.4158 220.39 26.8178H220.987C221.389 24.2202 221.585 21.6172 221.78 19.0197C221.976 16.4221 221.976 13.8192 221.78 11.2216C221.585 10.6184 221.585 9.82503 221.183 9.22183C220.987 8.8197 220.585 8.42301 219.983 8.21651H219.19C218.994 8.21651 218.788 8.41214 218.592 8.61864C217.995 9.02077 217.593 9.62396 217.196 10.2163C216.794 10.8141 216.403 11.4172 216.197 12.0204C214.997 14.4224 213.997 16.8243 213.204 19.2153C210.212 27.4155 208.219 35.6157 206.225 44.017C205.628 43.8214 205.226 43.8214 204.623 43.6149C205.22 40.8163 205.818 38.0122 206.616 35.4147C207.616 31.4151 208.805 27.4101 210.005 23.4105C211.2 19.411 212.596 15.406 214.394 11.8139C215.187 10.0098 216.192 8.01544 217.18 6.41779C217.778 5.61896 218.38 4.8147 218.978 4.01587C219.575 3.41268 220.374 2.81491 220.776 3.01055C221.177 3.01055 221.775 3.80937 222.171 4.61363C222.573 5.41246 222.769 6.41779 222.964 7.41225C223.366 9.41203 223.562 11.4118 223.562 13.6127C223.562 17.2155 223.366 21.4107 223.16 25.6168L223.214 25.6331L223.236 25.6059ZM277.293 53.6029L277.277 53.6138L273.888 52.815C274.083 54.4181 273.888 57.6188 273.095 61.2108C272.302 65.0093 271.102 68.0144 270.309 69.411L273.899 70.2098C274.692 70.0142 276.489 66.607 277.494 62.2053C278.287 57.9992 278.092 54.2007 277.299 53.5975L277.293 53.6029Z" fill="#8A2533"/>
</svg>
